<svg width="414" height="316" viewBox="0 0 414 316" fill="none" xmlns="http://www.w3.org/2000/svg">
<path d="M206.971 315.432C295.623 315.432 367.49 311.236 367.49 306.06C367.49 300.884 295.623 296.688 206.971 296.688C118.32 296.688 46.4531 300.884 46.4531 306.06C46.4531 311.236 118.32 315.432 206.971 315.432Z" fill="#F5F5F5"/>
<path d="M347.547 82.1836H266.332C262.047 82.1836 258.574 85.6566 258.574 89.9409V112.029C258.574 116.313 262.047 119.786 266.332 119.786H347.547C351.831 119.786 355.304 116.313 355.304 112.029V89.9409C355.304 85.6566 351.831 82.1836 347.547 82.1836Z" fill="#2F327D"/>
<path d="M331.435 88.5254H267.994C267.245 88.5254 266.637 89.1333 266.637 89.8831V91.3733C266.637 92.1232 267.245 92.731 267.994 92.731H331.435C332.185 92.731 332.793 92.1232 332.793 91.3733V89.8831C332.793 89.1333 332.185 88.5254 331.435 88.5254Z" fill="#2F327D"/>
<path d="M311.342 98.6592H267.994C267.245 98.6592 266.637 99.2671 266.637 100.017V101.507C266.637 102.257 267.245 102.865 267.994 102.865H311.342C312.092 102.865 312.7 102.257 312.7 101.507V100.017C312.7 99.2671 312.092 98.6592 311.342 98.6592Z" fill="#2F327D"/>
<path d="M299.719 108.792H267.994C267.245 108.792 266.637 109.4 266.637 110.15V111.64C266.637 112.39 267.245 112.998 267.994 112.998H299.719C300.469 112.998 301.077 112.39 301.077 111.64V110.15C301.077 109.4 300.469 108.792 299.719 108.792Z" fill="#2F327D"/>
<path d="M339.035 108.792H307.311C306.561 108.792 305.953 109.4 305.953 110.15V111.64C305.953 112.39 306.561 112.998 307.311 112.998H339.035C339.785 112.998 340.393 112.39 340.393 111.64V110.15C340.393 109.4 339.785 108.792 339.035 108.792Z" fill="#2F327D"/>
<g opacity="0.5">
<path d="M331.435 88.5254H267.994C267.245 88.5254 266.637 89.1333 266.637 89.8831V91.3733C266.637 92.1232 267.245 92.731 267.994 92.731H331.435C332.185 92.731 332.793 92.1232 332.793 91.3733V89.8831C332.793 89.1333 332.185 88.5254 331.435 88.5254Z" fill="white"/>
<path d="M311.342 98.6592H267.994C267.245 98.6592 266.637 99.2671 266.637 100.017V101.507C266.637 102.257 267.245 102.865 267.994 102.865H311.342C312.092 102.865 312.7 102.257 312.7 101.507V100.017C312.7 99.2671 312.092 98.6592 311.342 98.6592Z" fill="white"/>
<path d="M299.719 108.792H267.994C267.245 108.792 266.637 109.4 266.637 110.15V111.64C266.637 112.39 267.245 112.998 267.994 112.998H299.719C300.469 112.998 301.077 112.39 301.077 111.64V110.15C301.077 109.4 300.469 108.792 299.719 108.792Z" fill="white"/>
<path d="M339.035 108.792H307.311C306.561 108.792 305.953 109.4 305.953 110.15V111.64C305.953 112.39 306.561 112.998 307.311 112.998H339.035C339.785 112.998 340.393 112.39 340.393 111.64V110.15C340.393 109.4 339.785 108.792 339.035 108.792Z" fill="white"/>
</g>
<path d="M282.492 73.417H190.307C184.024 73.417 178.932 78.5098 178.932 84.7921V117.179C178.932 123.461 184.024 128.554 190.307 128.554H282.492C288.774 128.554 293.867 123.461 293.867 117.179V84.7921C293.867 78.5098 288.774 73.417 282.492 73.417Z" fill="#2F327D"/>
<path d="M285.752 82.7139H192.747C191.645 82.7139 190.752 83.6071 190.752 84.7091V86.8864C190.752 87.9883 191.645 88.8816 192.747 88.8816H285.752C286.853 88.8816 287.747 87.9883 287.747 86.8864V84.7091C287.747 83.6071 286.853 82.7139 285.752 82.7139Z" fill="#2F327D"/>
<path d="M256.287 97.5742H192.747C191.645 97.5742 190.752 98.4675 190.752 99.5694V101.747C190.752 102.849 191.645 103.742 192.747 103.742H256.287C257.389 103.742 258.282 102.849 258.282 101.747V99.5694C258.282 98.4675 257.389 97.5742 256.287 97.5742Z" fill="#2F327D"/>
<path d="M239.249 112.435H192.747C191.645 112.435 190.752 113.328 190.752 114.43V116.607C190.752 117.709 191.645 118.602 192.747 118.602H239.249C240.351 118.602 241.245 117.709 241.245 116.607V114.43C241.245 113.328 240.351 112.435 239.249 112.435Z" fill="#2F327D"/>
<path d="M289.139 112.435H250.394C249.292 112.435 248.398 113.328 248.398 114.43V116.607C248.398 117.709 249.292 118.602 250.394 118.602H289.139C290.24 118.602 291.134 117.709 291.134 116.607V114.43C291.134 113.328 290.24 112.435 289.139 112.435Z" fill="#2F327D"/>
<g opacity="0.5">
<path d="M285.754 82.7148H192.749C191.647 82.7148 190.754 83.6081 190.754 84.71V86.8874C190.754 87.9893 191.647 88.8826 192.749 88.8826H285.754C286.855 88.8826 287.749 87.9893 287.749 86.8874V84.71C287.749 83.6081 286.855 82.7148 285.754 82.7148Z" fill="white"/>
<path d="M256.289 97.5752H192.749C191.647 97.5752 190.754 98.4685 190.754 99.5704V101.748C190.754 102.85 191.647 103.743 192.749 103.743H256.289C257.391 103.743 258.284 102.85 258.284 101.748V99.5704C258.284 98.4685 257.391 97.5752 256.289 97.5752Z" fill="white"/>
<path d="M239.251 112.436H192.749C191.647 112.436 190.754 113.329 190.754 114.431V116.608C190.754 117.71 191.647 118.603 192.749 118.603H239.251C240.353 118.603 241.246 117.71 241.246 116.608V114.431C241.246 113.329 240.353 112.436 239.251 112.436Z" fill="white"/>
<path d="M289.139 112.436H250.394C249.292 112.436 248.398 113.329 248.398 114.431V116.608C248.398 117.71 249.292 118.603 250.394 118.603H289.139C290.24 118.603 291.134 117.71 291.134 116.608V114.431C291.134 113.329 290.24 112.436 289.139 112.436Z" fill="white"/>
</g>
<path d="M225.175 138.547H180.776C177.841 138.547 175.461 140.926 175.461 143.862V210.374C175.461 213.309 177.841 215.689 180.776 215.689H225.175C228.111 215.689 230.49 213.309 230.49 210.374V143.862C230.49 140.926 228.111 138.547 225.175 138.547Z" fill="#2F327D"/>
<path opacity="0.4" d="M225.175 138.547H180.776C177.841 138.547 175.461 140.926 175.461 143.862V210.374C175.461 213.309 177.841 215.689 180.776 215.689H225.175C228.111 215.689 230.49 213.309 230.49 210.374V143.862C230.49 140.926 228.111 138.547 225.175 138.547Z" fill="black"/>
<path d="M223.139 146.593H182.805C182.265 146.593 181.828 147.03 181.828 147.57V149.035C181.828 149.575 182.265 150.012 182.805 150.012H223.139C223.679 150.012 224.116 149.575 224.116 149.035V147.57C224.116 147.03 223.679 146.593 223.139 146.593Z" fill="#FAFAFA"/>
<path d="M210.299 154.823H182.805C182.265 154.823 181.828 155.261 181.828 155.8V157.265C181.828 157.805 182.265 158.242 182.805 158.242H210.299C210.839 158.242 211.276 157.805 211.276 157.265V155.8C211.276 155.261 210.839 154.823 210.299 154.823Z" fill="#FAFAFA"/>
<path d="M223.139 163.06H182.805C182.265 163.06 181.828 163.497 181.828 164.036V165.502C181.828 166.041 182.265 166.479 182.805 166.479H223.139C223.679 166.479 224.116 166.041 224.116 165.502V164.036C224.116 163.497 223.679 163.06 223.139 163.06Z" fill="#FAFAFA"/>
<path d="M197.798 171.289H182.805C182.265 171.289 181.828 171.726 181.828 172.266V173.731C181.828 174.271 182.265 174.708 182.805 174.708H197.798C198.338 174.708 198.775 174.271 198.775 173.731V172.266C198.775 171.726 198.338 171.289 197.798 171.289Z" fill="#FAFAFA"/>
<path d="M218.777 171.289H203.784C203.244 171.289 202.807 171.726 202.807 172.266V173.731C202.807 174.271 203.244 174.708 203.784 174.708H218.777C219.316 174.708 219.753 174.271 219.753 173.731V172.266C219.753 171.726 219.316 171.289 218.777 171.289Z" fill="#FAFAFA"/>
<path d="M223.139 179.526H182.805C182.265 179.526 181.828 179.964 181.828 180.503V181.969C181.828 182.508 182.265 182.946 182.805 182.946H223.139C223.679 182.946 224.116 182.508 224.116 181.969V180.503C224.116 179.964 223.679 179.526 223.139 179.526Z" fill="#FAFAFA"/>
<path d="M223.139 187.755H182.805C182.265 187.755 181.828 188.192 181.828 188.732V190.197C181.828 190.737 182.265 191.174 182.805 191.174H223.139C223.679 191.174 224.116 190.737 224.116 190.197V188.732C224.116 188.192 223.679 187.755 223.139 187.755Z" fill="#FAFAFA"/>
<path d="M215.987 195.993H182.805C182.265 195.993 181.828 196.431 181.828 196.97V198.435C181.828 198.975 182.265 199.412 182.805 199.412H215.987C216.526 199.412 216.963 198.975 216.963 198.435V196.97C216.963 196.431 216.526 195.993 215.987 195.993Z" fill="#FAFAFA"/>
<path d="M198.286 204.223H182.805C182.265 204.223 181.828 204.66 181.828 205.2V206.665C181.828 207.204 182.265 207.642 182.805 207.642H198.286C198.826 207.642 199.263 207.204 199.263 206.665V205.2C199.263 204.66 198.826 204.223 198.286 204.223Z" fill="#FAFAFA"/>
<path d="M237.188 138.074H175.602L202.831 159.74L244.581 175.47V145.451C244.576 143.493 243.796 141.617 242.41 140.234C241.024 138.851 239.146 138.074 237.188 138.074Z" fill="#2F327D"/>
<path opacity="0.4" d="M237.188 138.074H175.602L202.831 159.74L244.581 175.47V145.451C244.576 143.493 243.796 141.617 242.41 140.234C241.024 138.851 239.146 138.074 237.188 138.074Z" fill="black"/>
<path d="M234.498 149.234H189.436C188.76 149.234 188.211 149.783 188.211 150.46V152.745C188.211 153.421 188.76 153.97 189.436 153.97H234.498C235.175 153.97 235.723 153.421 235.723 152.745V150.46C235.723 149.783 235.175 149.234 234.498 149.234Z" fill="#FAFAFA"/>
<path d="M343.695 196.721V153.406C343.695 150.086 341.004 147.396 337.685 147.396H262.472C259.152 147.396 256.461 150.086 256.461 153.406V196.721C256.461 200.04 259.152 202.731 262.472 202.731H337.685C341.004 202.731 343.695 200.04 343.695 196.721Z" fill="#2F327D"/>
<path d="M357.43 182.995V139.68C357.43 136.361 354.739 133.67 351.419 133.67H276.206C272.887 133.67 270.196 136.361 270.196 139.68V182.995C270.196 186.315 272.887 189.006 276.206 189.006H351.419C354.739 189.006 357.43 186.315 357.43 182.995Z" fill="#2F327D"/>
<path opacity="0.5" d="M357.43 182.995V139.68C357.43 136.361 354.739 133.67 351.419 133.67H276.206C272.887 133.67 270.196 136.361 270.196 139.68V182.995C270.196 186.315 272.887 189.006 276.206 189.006H351.419C354.739 189.006 357.43 186.315 357.43 182.995Z" fill="white"/>
<path d="M349.797 168.152V141.486C349.797 140.009 348.6 138.812 347.123 138.812H322.543C321.066 138.812 319.869 140.009 319.869 141.486V168.152C319.869 169.629 321.066 170.826 322.543 170.826H347.123C348.6 170.826 349.797 169.629 349.797 168.152Z" fill="#2F327D"/>
<path opacity="0.7" d="M349.797 168.152V141.486C349.797 140.009 348.6 138.812 347.123 138.812H322.543C321.066 138.812 319.869 140.009 319.869 141.486V168.152C319.869 169.629 321.066 170.826 322.543 170.826H347.123C348.6 170.826 349.797 169.629 349.797 168.152Z" fill="white"/>
<path d="M315.184 181.05V160.618C315.184 159.484 314.264 158.564 313.13 158.564H294.296C293.162 158.564 292.243 159.484 292.243 160.618V181.05C292.243 182.184 293.162 183.103 294.296 183.103H313.13C314.264 183.103 315.184 182.184 315.184 181.05Z" fill="#2F327D"/>
<path opacity="0.3" d="M315.184 181.05V160.618C315.184 159.484 314.264 158.564 313.13 158.564H294.296C293.162 158.564 292.243 159.484 292.243 160.618V181.05C292.243 182.184 293.162 183.103 294.296 183.103H313.13C314.264 183.103 315.184 182.184 315.184 181.05Z" fill="white"/>
<path d="M303.709 51.5019V40.4662C303.709 37.0919 300.974 34.3564 297.599 34.3564L95.4881 34.3564C92.1137 34.3564 89.3783 37.0919 89.3783 40.4662V51.5019C89.3783 54.8762 92.1137 57.6117 95.4881 57.6117L297.599 57.6117C300.974 57.6117 303.709 54.8762 303.709 51.5019Z" fill="#2F327D"/>
<path opacity="0.5" d="M303.709 51.5019V40.4662C303.709 37.0919 300.974 34.3564 297.599 34.3564L95.4881 34.3564C92.1137 34.3564 89.3783 37.0919 89.3783 40.4662V51.5019C89.3783 54.8762 92.1137 57.6117 95.4881 57.6117L297.599 57.6117C300.974 57.6117 303.709 54.8762 303.709 51.5019Z" fill="white"/>
<path d="M265.469 61.5037V53.498L207.31 53.498V61.5037H265.469Z" fill="#2F327D"/>
<path opacity="0.5" d="M265.469 61.5037V53.498L207.31 53.498V61.5037H265.469Z" fill="white"/>
<path d="M324.562 17.1455V6.10978C324.562 2.73545 321.827 0 318.453 0L116.342 0C112.967 0 110.232 2.73545 110.232 6.10978V17.1455C110.232 20.5198 112.967 23.2553 116.342 23.2553L318.453 23.2553C321.827 23.2553 324.562 20.5198 324.562 17.1455Z" fill="#2F327D"/>
<path d="M107.926 122.286C107.198 123.942 106.395 125.73 105.691 127.477C104.987 129.224 104.259 131.02 103.621 132.808C102.313 136.294 101.265 139.872 100.484 143.513L100.244 144.838L100.161 145.334C100.161 145.475 100.161 145.657 100.111 145.823C100.08 146.629 100.096 147.436 100.161 148.24C100.318 149.987 100.6 151.858 100.989 153.729C101.684 157.479 102.57 161.346 103.472 165.154L99.2254 166.81C97.2456 163.201 95.5596 159.438 94.1836 155.559C93.4586 153.54 92.8722 151.473 92.4285 149.374C92.1798 148.213 92.0248 147.034 91.9648 145.848C91.9648 145.516 91.9648 145.202 91.9648 144.846C91.9648 144.49 91.9648 144.092 92.0228 143.861L92.1884 142.205C92.4357 140.072 92.8145 137.957 93.3226 135.872C93.7862 133.802 94.3823 131.79 94.9783 129.803C95.5744 127.816 96.3195 125.862 97.106 123.942C97.4951 122.981 97.9339 122.029 98.3147 121.077C98.6955 120.125 99.1426 119.215 99.6724 118.196L107.926 122.286Z" fill="#E4897B"/>
<path d="M103.249 164.036L106.477 167.19L99.432 170.502C99.432 170.502 97.7266 167.513 98.9104 164.814L103.249 164.036Z" fill="#E4897B"/>
<path d="M109.084 171.885L103.132 174.318L99.4395 170.469L106.476 167.19L109.084 171.885Z" fill="#E4897B"/>
<path opacity="0.4" d="M229.666 168.49C217.952 167.175 206.891 162.417 197.881 154.816C188.872 147.215 182.318 137.114 179.048 125.79C175.778 114.465 175.94 102.425 179.512 91.1916C183.084 79.9585 189.906 70.0366 199.116 62.6803C208.327 55.324 219.511 50.8635 231.256 49.8627C243.001 48.862 254.779 51.3658 265.1 57.0579C275.422 62.7499 283.825 71.3744 289.246 81.8413C294.667 92.3081 296.863 104.147 295.557 115.862C294.689 123.645 292.296 131.181 288.514 138.039C284.732 144.897 279.636 150.942 273.517 155.83C267.398 160.717 260.375 164.351 252.851 166.524C245.327 168.696 237.448 169.364 229.666 168.49Z" fill="#FAFAFA"/>
<path opacity="0.4" d="M273.03 62.2891L182.377 134.721C181.996 133.893 181.624 133.065 181.276 132.237C179.003 126.831 177.55 121.117 176.963 115.282L255.264 52.7188C261.693 54.8631 267.703 58.1007 273.03 62.2891Z" fill="#FAFAFA"/>
<path opacity="0.4" d="M293.95 94.0221L208.72 162.116C200.623 157.895 193.606 151.867 188.213 144.498L281.275 70.1377C287.274 77.0231 291.611 85.1948 293.95 94.0221Z" fill="#FAFAFA"/>
<path d="M169.212 86.4717L168.426 86.2067C169.788 82.1874 171.5 78.2952 173.542 74.575L174.262 74.9724C172.247 78.651 170.557 82.4987 169.212 86.4717ZM179.263 67.1489L178.592 66.6604C185.396 57.4609 194.3 50.0211 204.563 44.9616L204.935 45.7067C194.789 50.714 185.987 58.0742 179.263 67.1737V67.1489ZM269.99 46.8409C267.285 45.3898 264.486 44.1204 261.612 43.0409L261.91 42.2627C264.812 43.3675 267.639 44.6618 270.371 46.1372L269.99 46.8409Z" fill="#2F327D"/>
<path opacity="0.3" d="M169.212 86.4717L168.426 86.2067C169.788 82.1874 171.5 78.2952 173.542 74.575L174.262 74.9724C172.247 78.651 170.557 82.4987 169.212 86.4717ZM179.263 67.1489L178.592 66.6604C185.396 57.4609 194.3 50.0211 204.563 44.9616L204.935 45.7067C194.789 50.714 185.987 58.0742 179.263 67.1737V67.1489ZM269.99 46.8409C267.285 45.3898 264.486 44.1204 261.612 43.0409L261.91 42.2627C264.812 43.3675 267.639 44.6618 270.371 46.1372L269.99 46.8409Z" fill="black"/>
<path d="M297.931 78.8056C290.266 62.9063 276.775 50.5668 260.257 44.345C243.739 38.1232 225.461 38.4964 209.21 45.3872C192.96 52.278 179.985 65.1578 172.974 81.3567C165.964 97.5556 165.455 115.831 171.555 132.394C166.025 134.332 160.561 136.41 155.13 138.554C147.298 141.661 139.538 144.907 131.85 148.29C124.167 151.692 116.517 155.161 108.942 158.787C105.142 160.567 101.392 162.447 97.6085 164.268C95.6403 165.114 93.8571 166.337 92.3597 167.869C91.5495 168.718 90.8359 169.653 90.2321 170.659C89.4953 171.849 88.9375 173.14 88.5763 174.492C87.9534 176.929 88.2228 179.507 89.3358 181.762C90.4488 184.017 92.332 185.799 94.6447 186.786C95.929 187.325 97.284 187.676 98.6682 187.83C99.8373 187.962 101.018 187.962 102.187 187.83C104.311 187.572 106.365 186.899 108.23 185.851C111.981 183.955 115.756 182.125 119.481 180.18C126.932 176.38 134.383 172.414 141.743 168.391C149.103 164.367 156.471 160.153 163.657 155.832C168.624 152.827 173.641 149.755 178.559 146.543C188.002 161.45 202.818 172.153 219.938 176.434C237.057 180.715 255.167 178.246 270.516 169.537C285.864 160.829 297.274 146.55 302.381 129.659C307.488 112.767 305.901 94.5586 297.948 78.8056H297.931ZM260.296 157.893C250.675 162.642 239.862 164.432 229.223 163.035C218.585 161.639 208.6 157.12 200.53 150.049C192.461 142.978 186.669 133.673 183.887 123.311C181.106 112.948 181.459 101.994 184.903 91.832C188.347 81.6704 194.727 72.7582 203.235 66.2222C211.744 59.6862 222 55.8201 232.706 55.1125C243.412 54.405 254.087 56.8879 263.382 62.2472C272.677 67.6066 280.174 75.6017 284.925 85.2217C288.081 91.6104 289.947 98.5581 290.417 105.668C290.886 112.778 289.951 119.911 287.664 126.659C285.377 133.408 281.783 139.639 277.087 144.999C272.391 150.358 266.685 154.739 260.296 157.893Z" fill="#2F327D"/>
<path opacity="0.3" d="M297.931 78.8056C290.266 62.9063 276.775 50.5668 260.257 44.345C243.739 38.1232 225.461 38.4964 209.21 45.3872C192.96 52.278 179.985 65.1578 172.974 81.3567C165.964 97.5556 165.455 115.831 171.555 132.394C166.025 134.332 160.561 136.41 155.13 138.554C147.298 141.661 139.538 144.907 131.85 148.29C124.167 151.692 116.517 155.161 108.942 158.787C105.142 160.567 101.392 162.447 97.6085 164.268C95.6403 165.114 93.8571 166.337 92.3597 167.869C91.5495 168.718 90.8359 169.653 90.2321 170.659C89.4953 171.849 88.9375 173.14 88.5763 174.492C87.9534 176.929 88.2228 179.507 89.3358 181.762C90.4488 184.017 92.332 185.799 94.6447 186.786C95.929 187.325 97.284 187.676 98.6682 187.83C99.8373 187.962 101.018 187.962 102.187 187.83C104.311 187.572 106.365 186.899 108.23 185.851C111.981 183.955 115.756 182.125 119.481 180.18C126.932 176.38 134.383 172.414 141.743 168.391C149.103 164.367 156.471 160.153 163.657 155.832C168.624 152.827 173.641 149.755 178.559 146.543C188.002 161.45 202.818 172.153 219.938 176.434C237.057 180.715 255.167 178.246 270.516 169.537C285.864 160.829 297.274 146.55 302.381 129.659C307.488 112.767 305.901 94.5586 297.948 78.8056H297.931ZM260.296 157.893C250.675 162.642 239.862 164.432 229.223 163.035C218.585 161.639 208.6 157.12 200.53 150.049C192.461 142.978 186.669 133.673 183.887 123.311C181.106 112.948 181.459 101.994 184.903 91.832C188.347 81.6704 194.727 72.7582 203.235 66.2222C211.744 59.6862 222 55.8201 232.706 55.1125C243.412 54.405 254.087 56.8879 263.382 62.2472C272.677 67.6066 280.174 75.6017 284.925 85.2217C288.081 91.6104 289.947 98.5581 290.417 105.668C290.886 112.778 289.951 119.911 287.664 126.659C285.377 133.408 281.783 139.639 277.087 144.999C272.391 150.358 266.685 154.739 260.296 157.893Z" fill="black"/>
<path d="M130.809 92.7228C130.809 93.2112 131.065 93.6086 131.388 93.6086C131.711 93.6086 131.968 93.2112 131.968 92.7228C131.968 92.2343 131.711 91.8369 131.388 91.8369C131.065 91.8369 130.809 92.2674 130.809 92.7228Z" fill="#263238"/>
<path d="M131.041 93.6084C131.627 95.1078 132.415 96.52 133.384 97.8058C133.049 98.0453 132.666 98.2088 132.261 98.2846C131.856 98.3604 131.44 98.3467 131.041 98.2445V93.6084Z" fill="#DE5753"/>
<path d="M129.093 89.998C129.047 89.9981 129.001 89.9877 128.959 89.9676C128.918 89.9475 128.881 89.9183 128.853 89.8821C128.81 89.819 128.792 89.7416 128.805 89.6661C128.817 89.5906 128.858 89.5227 128.919 89.4765C129.284 89.2 129.71 89.0157 130.161 88.9393C130.612 88.8629 131.075 88.8966 131.51 89.0377C131.549 89.0484 131.586 89.0671 131.617 89.0927C131.649 89.1183 131.674 89.1502 131.693 89.1864C131.711 89.2225 131.721 89.2621 131.723 89.3026C131.725 89.343 131.719 89.3835 131.704 89.4213C131.69 89.4591 131.668 89.4935 131.639 89.5221C131.61 89.5508 131.576 89.5731 131.538 89.5877C131.5 89.6022 131.46 89.6087 131.419 89.6067C131.379 89.6046 131.339 89.5941 131.303 89.5758C130.957 89.4698 130.591 89.4483 130.235 89.5131C129.88 89.5779 129.545 89.7272 129.258 89.9484C129.209 89.9809 129.152 89.9982 129.093 89.998Z" fill="#263238"/>
<path d="M114.083 96.4062C114.911 100.852 115.822 109.007 112.709 111.979C112.709 111.979 113.926 116.491 122.197 116.491C131.303 116.491 126.535 111.979 126.535 111.979C121.567 110.787 121.708 107.111 122.569 103.65L114.083 96.4062Z" fill="#E4897B"/>
<path d="M108.993 114.322C109.978 112.79 108.322 109.073 108.322 109.073C108.322 109.073 122.959 105.389 128.945 111.043C130.187 112.211 128.812 113.933 128.812 113.933L108.993 114.322Z" fill="#2F327D"/>
<path opacity="0.1" d="M108.993 114.322C109.978 112.79 108.322 109.073 108.322 109.073C108.322 109.073 122.959 105.389 128.945 111.043C130.187 112.211 128.812 113.933 128.812 113.933L108.993 114.322Z" fill="black"/>
<path d="M84.7765 283.234C84.0066 283.234 82.7731 281.951 82.4088 281.471C82.3931 281.448 82.3848 281.42 82.3848 281.392C82.3848 281.364 82.3931 281.337 82.4088 281.314C82.4222 281.291 82.4415 281.272 82.4648 281.258C82.4881 281.245 82.5145 281.239 82.5413 281.239C82.6323 281.239 84.6606 281.421 85.2153 282.142C85.2756 282.218 85.3187 282.306 85.3416 282.4C85.3644 282.495 85.3666 282.593 85.3478 282.688C85.3406 282.811 85.2953 282.929 85.2182 283.026C85.1411 283.122 85.0359 283.192 84.9173 283.226L84.7765 283.234ZM82.8559 281.579C83.4602 282.274 84.4288 283.061 84.8428 282.961C84.8428 282.961 85.0083 282.92 85.058 282.655C85.0689 282.6 85.0671 282.543 85.0528 282.488C85.0384 282.434 85.0119 282.383 84.9752 282.34C84.3619 281.876 83.624 281.605 82.8559 281.562V281.579Z" fill="#2F327D"/>
<path d="M82.9479 281.562C82.7992 281.578 82.6494 281.578 82.5008 281.562C82.4746 281.56 82.4496 281.551 82.429 281.535C82.4084 281.518 82.393 281.496 82.3849 281.471C82.3733 281.448 82.3672 281.423 82.3672 281.397C82.3672 281.371 82.3733 281.346 82.3849 281.322C82.4429 281.273 83.6598 280.006 84.5788 280.006C84.6888 280.004 84.798 280.024 84.8993 280.067C85.0006 280.11 85.0917 280.174 85.1666 280.254C85.249 280.323 85.3054 280.418 85.3265 280.524C85.3476 280.629 85.332 280.739 85.2825 280.834C85.0424 281.298 83.7757 281.562 82.9479 281.562ZM82.8402 281.273C83.6681 281.273 84.8685 281.016 85.0672 280.652C85.0672 280.652 85.1252 280.544 84.9927 280.412C84.9445 280.359 84.8855 280.318 84.8197 280.291C84.7539 280.264 84.683 280.251 84.6119 280.254C83.9332 280.41 83.3164 280.765 82.8402 281.273Z" fill="#2F327D"/>
<path d="M139.41 302.028C138.783 302.023 138.157 301.965 137.539 301.854C137.509 301.848 137.481 301.831 137.461 301.807C137.442 301.783 137.431 301.753 137.432 301.721C137.427 301.693 137.431 301.663 137.443 301.637C137.454 301.61 137.474 301.588 137.498 301.572C137.589 301.523 139.708 300.306 140.727 300.587C140.821 300.608 140.91 300.649 140.988 300.706C141.067 300.763 141.133 300.835 141.182 300.918C141.247 301.01 141.282 301.12 141.282 301.233C141.282 301.345 141.247 301.455 141.182 301.547C140.942 301.92 140.188 302.028 139.41 302.028ZM138.011 301.639C139.137 301.804 140.677 301.796 140.958 301.398C141 301.349 141.033 301.258 140.958 301.084C140.895 300.981 140.794 300.907 140.677 300.877C140.031 300.711 138.748 301.258 138.011 301.639Z" fill="#2F327D"/>
<path d="M137.572 301.862C137.545 301.87 137.516 301.87 137.489 301.862C137.466 301.847 137.448 301.826 137.438 301.801C137.427 301.776 137.425 301.748 137.431 301.721C137.487 300.859 137.818 300.038 138.375 299.378C138.487 299.281 138.62 299.209 138.763 299.168C138.905 299.126 139.055 299.116 139.203 299.138C139.6 299.138 139.716 299.378 139.741 299.536C139.848 300.223 138.4 301.539 137.663 301.87L137.572 301.862ZM139.054 299.378C138.871 299.377 138.695 299.442 138.557 299.56C138.089 300.083 137.799 300.741 137.729 301.44C138.474 300.984 139.468 299.958 139.385 299.544C139.385 299.544 139.385 299.403 139.103 299.378H139.054Z" fill="#2F327D"/>
<path d="M130.883 301.713H136.968L137.572 287.631H131.487L130.883 301.713Z" fill="#E4897B"/>
<path d="M76.6973 277.538L81.7805 280.866L93.0066 271.387L87.9151 268.051L76.6973 277.538Z" fill="#E4897B"/>
<path d="M82.6166 280.552L77.3347 276.222C77.2414 276.145 77.1244 276.104 77.0036 276.104C76.8828 276.104 76.7657 276.145 76.6724 276.222L72.3178 279.641C72.2126 279.725 72.1276 279.831 72.0692 279.953C72.0108 280.074 71.9805 280.206 71.9805 280.341C71.9805 280.475 72.0108 280.608 72.0692 280.729C72.1276 280.85 72.2126 280.957 72.3178 281.04C74.1888 282.522 75.174 283.152 77.5003 285.056C78.9325 286.223 82.4676 289.799 84.4628 291.414C86.458 293.028 88.2876 291.29 87.6253 290.453C84.6532 286.687 83.4859 283.466 83.1465 281.471C83.0878 281.11 82.8994 280.783 82.6166 280.552Z" fill="#263238"/>
<path d="M136.926 301.009H130.303C130.182 301.009 130.065 301.05 129.971 301.125C129.876 301.2 129.809 301.305 129.782 301.423L128.581 306.829C128.551 306.96 128.551 307.096 128.581 307.227C128.612 307.358 128.671 307.48 128.756 307.585C128.84 307.689 128.948 307.773 129.069 307.83C129.191 307.887 129.324 307.916 129.459 307.913C131.851 307.872 135.312 307.731 138.325 307.731C141.844 307.731 144.89 307.922 149.013 307.922C151.497 307.922 152.209 305.397 151.158 305.173C146.406 304.13 142.514 304.022 138.408 301.481C137.968 301.189 137.454 301.026 136.926 301.009Z" fill="#263238"/>
<path d="M100.722 113.792C95.4486 116.276 92.4434 132.916 92.4434 132.916L105.334 138.057C107.22 133.45 108.745 128.703 109.895 123.859C111.667 116.193 106.12 111.226 100.722 113.792Z" fill="#263238"/>
<path d="M107.561 123.171C104.374 126.4 102.917 132.725 102.279 136.84L105.367 138.073C107.2 133.597 108.695 128.989 109.838 124.289C109.565 122.534 108.886 121.83 107.561 123.171Z" fill="#203048"/>
<path d="M135.892 113.676C135.892 113.676 142.366 120.994 136.256 166.246H103.728C103.505 161.279 106.642 136.898 101.824 113.369C105.419 112.672 109.056 112.213 112.711 111.995C117.315 111.722 121.932 111.722 126.537 111.995C129.694 112.313 132.821 112.875 135.892 113.676Z" fill="#263238"/>
<path d="M138.863 131.244L133.382 121.798C132.324 126.205 131.892 130.74 132.099 135.268C132.248 138.513 135.22 150.534 137.894 152.289C138.604 145.297 138.927 138.271 138.863 131.244Z" fill="#203048"/>
<path d="M139.624 120.142C140.452 124.165 141.28 128.288 142.166 132.328C143.052 136.368 143.971 140.425 145.039 144.341C145.312 145.309 145.569 146.303 145.867 147.23L146.09 147.942L146.198 148.298V148.257C146.14 148.182 146.074 148.174 146.123 148.257C146.464 148.628 146.899 148.9 147.382 149.043C148.164 149.334 148.97 149.559 149.791 149.714C153.705 150.334 157.668 150.592 161.63 150.484L162.416 154.987C161.307 155.343 160.272 155.6 159.179 155.856C158.086 156.113 157.01 156.328 155.909 156.494C153.631 156.873 151.321 157.029 149.013 156.958C147.73 156.923 146.453 156.757 145.204 156.461C143.616 156.113 142.124 155.421 140.833 154.433C139.99 153.752 139.294 152.907 138.788 151.949C138.656 151.701 138.54 151.419 138.432 151.179L138.283 150.79L137.977 149.962C137.555 148.911 137.207 147.876 136.826 146.841C135.427 142.701 134.26 138.521 133.233 134.348C132.207 130.176 131.321 126.011 130.584 121.731L139.624 120.142Z" fill="#E4897B"/>
<path d="M127.77 118.114C126.056 123.669 133.002 140.235 133.002 140.235L146.836 136.758C146.836 136.758 146.306 128.148 143.152 121.318C138.4 111.019 129.823 111.449 127.77 118.114Z" fill="#263238"/>
<path d="M161.514 150.483L168.402 150.31L165.09 157.479C165.09 157.479 162.284 157.852 159.982 154.068L157.557 151.171L160.347 150.616C160.731 150.535 161.122 150.491 161.514 150.483Z" fill="#E4897B"/>
<path d="M172.748 151.642L168.807 157.587L165.09 157.479L168.401 150.31L172.748 151.642Z" fill="#E4897B"/>
<path d="M137.571 287.631L137.257 294.891H131.172L131.486 287.631H137.571Z" fill="#CE6F64"/>
<path d="M87.9158 268.051L93.0073 271.387L87.2121 276.272L82.1289 272.944L87.9158 268.051Z" fill="#CE6F64"/>
<path d="M114.464 91.6713C114.829 97.69 114.738 101.242 117.776 104.33C122.346 108.991 129.788 106.234 131.229 100.19C132.529 94.7758 131.717 85.8347 125.823 83.4338C124.522 82.9088 123.11 82.7229 121.717 82.8935C120.325 83.064 118.999 83.5855 117.864 84.4089C116.728 85.2324 115.821 86.3308 115.226 87.6011C114.632 88.8713 114.369 90.2719 114.464 91.6713Z" fill="#E4897B"/>
<path d="M107.379 90.6119C108.878 96.1008 112.405 102.426 116.966 102.831C122.629 103.328 125.187 97.4751 125.932 91.4315C129.326 89.1052 127.546 86.547 130.949 86.2242C135.32 85.8102 133.921 77.8129 128.167 76.5296C128.167 76.5296 130.096 80.1309 126.048 78.3096C122.198 76.4799 117.921 75.7384 113.679 76.1654C113.679 76.1654 118.845 78.7484 113.795 79.8991C108.745 81.0499 107.239 84.1627 109.565 86.042C109.565 86.0503 106.394 87.0024 107.379 90.6119Z" fill="#263238"/>
<path d="M122.479 92.6728C122.59 94.1689 123.193 95.5863 124.193 96.7046C125.517 98.1699 126.9 97.2592 127.132 95.4793C127.347 93.8815 126.908 91.1909 125.285 90.3795C123.663 89.5682 122.371 90.868 122.479 92.6728Z" fill="#E4897B"/>
<path d="M124.713 166.247C124.713 166.247 130.64 209.172 125.971 226.376C118.57 253.613 90.2729 276.603 90.2729 276.603L80.6777 270.311C80.6777 270.311 104.777 250.898 107.725 228.089C110.374 207.616 103.726 182.854 103.726 166.238L124.713 166.247Z" fill="#2F327D"/>
<path opacity="0.1" d="M124.713 166.247C124.713 166.247 130.64 209.172 125.971 226.376C118.57 253.613 90.2729 276.603 90.2729 276.603L80.6777 270.311C80.6777 270.311 104.777 250.898 107.725 228.089C110.374 207.616 103.726 182.854 103.726 166.238L124.713 166.247Z" fill="black"/>
<path d="M127.165 190.785C125.587 188.977 123.85 187.314 121.975 185.817C122.985 199.751 123.813 220.39 122.894 235.052C124.129 232.241 125.158 229.344 125.973 226.384C128.25 217.981 128.01 203.468 127.165 190.785Z" fill="#2F327D"/>
<path opacity="0.3" d="M127.165 190.785C125.587 188.977 123.85 187.314 121.975 185.817C122.985 199.751 123.813 220.39 122.894 235.052C124.129 232.241 125.158 229.344 125.973 226.384C128.25 217.981 128.01 203.468 127.165 190.785Z" fill="black"/>
<path d="M94.1416 274.459C94.183 274.459 90.4244 276.943 90.4244 276.943L79.9434 270.071L83.2549 267.331L94.1416 274.459Z" fill="#2F327D"/>
<path opacity="0.3" d="M94.1416 274.459C94.183 274.459 90.4244 276.943 90.4244 276.943L79.9434 270.071L83.2549 267.331L94.1416 274.459Z" fill="black"/>
<path d="M136.255 166.247C136.255 166.247 145.412 205.075 146.057 223.628C146.786 244.424 139.525 293.484 139.525 293.484H129.218C129.218 293.484 127.952 244.043 127.496 225.101C126.991 204.446 114.871 166.247 114.871 166.247H136.255Z" fill="#2F327D"/>
<path opacity="0.1" d="M136.255 166.247C136.255 166.247 145.412 205.075 146.057 223.628C146.786 244.424 139.525 293.484 139.525 293.484H129.218C129.218 293.484 127.952 244.043 127.496 225.101C126.991 204.446 114.871 166.247 114.871 166.247H136.255Z" fill="black"/>
<path d="M141.504 289.386C141.554 289.386 140.924 293.658 140.924 293.658H128.39L128.051 289.841L141.504 289.386Z" fill="#2F327D"/>
<path opacity="0.3" d="M141.504 289.386C141.554 289.386 140.924 293.658 140.924 293.658H128.39L128.051 289.841L141.504 289.386Z" fill="black"/>
<path d="M294.727 128.934C295.43 129.596 295.985 130.159 296.565 130.788C297.144 131.417 297.691 132.03 298.22 132.667C299.297 133.934 300.307 135.267 301.284 136.608C303.235 139.298 304.97 142.139 306.474 145.102L306.781 145.707C306.93 145.999 307.055 146.304 307.153 146.617C307.353 147.223 307.476 147.852 307.518 148.488C307.571 149.611 307.417 150.733 307.062 151.8C306.457 153.571 305.559 155.228 304.405 156.701C302.324 159.372 299.871 161.731 297.119 163.705L295.058 161.337C296.027 160.203 297.037 158.986 297.939 157.769C298.857 156.59 299.687 155.344 300.423 154.043C301.11 152.908 301.618 151.674 301.929 150.384C302.036 149.923 302.056 149.445 301.987 148.977C301.958 148.819 301.908 148.666 301.838 148.521C301.807 148.458 301.771 148.397 301.731 148.339L301.466 147.892C299.869 145.289 298.136 142.771 296.275 140.35C295.356 139.133 294.371 137.966 293.377 136.815C292.889 136.236 292.384 135.673 291.879 135.11C291.374 134.547 290.827 133.984 290.389 133.545L294.727 128.934Z" fill="#E4897B"/>
<path d="M295.854 160.642L289.67 159.632L292.907 165.046C292.907 165.046 296.889 164.905 298.023 162.563L295.854 160.642Z" fill="#E4897B"/>
<path d="M285.1 162.132L288.047 166.528L292.907 165.046L289.67 159.632L285.1 162.132Z" fill="#E4897B"/>
<path d="M295.556 301.953C295.136 301.99 294.716 301.875 294.372 301.631C294.269 301.533 294.192 301.409 294.15 301.273C294.108 301.137 294.102 300.992 294.132 300.852C294.138 300.763 294.168 300.678 294.22 300.605C294.271 300.532 294.341 300.474 294.422 300.438C295.142 300.116 297.03 301.324 297.245 301.465C297.27 301.48 297.289 301.503 297.299 301.53C297.31 301.557 297.311 301.586 297.303 301.614C297.3 301.642 297.288 301.669 297.269 301.69C297.249 301.711 297.224 301.725 297.196 301.73C296.659 301.866 296.109 301.941 295.556 301.953ZM294.728 300.67C294.668 300.661 294.607 300.661 294.546 300.67C294.51 300.687 294.479 300.714 294.457 300.748C294.435 300.781 294.423 300.82 294.422 300.861C294.4 300.953 294.402 301.05 294.428 301.141C294.455 301.232 294.504 301.315 294.571 301.382C294.886 301.664 295.697 301.705 296.782 301.49C296.16 301.079 295.462 300.8 294.728 300.67Z" fill="#2F327D"/>
<path d="M297.211 301.721H297.136C296.548 301.382 295.414 300.066 295.555 299.345C295.582 299.232 295.645 299.13 295.734 299.055C295.824 298.981 295.935 298.937 296.052 298.931C296.163 298.915 296.277 298.925 296.385 298.959C296.493 298.994 296.591 299.052 296.673 299.13C297.351 299.726 297.36 301.514 297.36 301.614C297.358 301.639 297.351 301.663 297.338 301.685C297.325 301.707 297.307 301.725 297.285 301.738L297.211 301.721ZM296.151 299.238H296.085C295.903 299.238 295.861 299.337 295.845 299.412C295.762 299.834 296.466 300.844 297.053 301.316C297.068 300.621 296.868 299.939 296.482 299.362C296.433 299.316 296.374 299.281 296.309 299.259C296.245 299.238 296.177 299.23 296.11 299.238H296.151Z" fill="#2F327D"/>
<path d="M267.341 301.953C266.813 302.003 266.283 301.869 265.843 301.572C265.744 301.484 265.667 301.373 265.619 301.25C265.572 301.126 265.555 300.992 265.57 300.86C265.575 300.78 265.601 300.702 265.644 300.634C265.687 300.566 265.747 300.51 265.818 300.471C266.588 300.041 269.055 301.299 269.337 301.456C269.362 301.473 269.383 301.497 269.396 301.524C269.409 301.552 269.414 301.583 269.411 301.614C269.406 301.643 269.393 301.669 269.372 301.69C269.351 301.711 269.324 301.725 269.295 301.729C268.652 301.866 267.998 301.941 267.341 301.953ZM266.24 300.67C266.146 300.663 266.051 300.684 265.967 300.728C265.937 300.742 265.912 300.764 265.895 300.792C265.877 300.82 265.868 300.852 265.868 300.885C265.855 300.971 265.864 301.059 265.892 301.141C265.921 301.224 265.97 301.298 266.033 301.357C266.414 301.696 267.432 301.754 268.807 301.523C268.005 301.096 267.138 300.807 266.24 300.67Z" fill="#2F327D"/>
<path d="M269.27 301.721H269.204C268.467 301.39 267.002 300.065 267.118 299.345C267.118 299.179 267.267 298.972 267.673 298.931C267.821 298.915 267.971 298.93 268.113 298.974C268.255 299.018 268.387 299.091 268.5 299.188C269.279 299.833 269.428 301.506 269.428 301.58C269.431 301.606 269.427 301.631 269.417 301.655C269.407 301.678 269.39 301.698 269.37 301.713C269.338 301.726 269.303 301.729 269.27 301.721ZM267.788 299.237H267.697C267.432 299.237 267.416 299.37 267.408 299.403C267.341 299.825 268.335 300.877 269.063 301.332C268.991 300.624 268.702 299.956 268.235 299.42C268.11 299.312 267.953 299.249 267.788 299.237Z" fill="#2F327D"/>
<path d="M279.055 109.9C278.815 113.642 278.169 121.242 281.042 123.345C281.042 123.345 280.52 127.178 273.74 128.072C266.289 129.041 269.691 124.835 269.691 124.835C273.64 123.329 273.135 120.323 272.059 117.575L279.055 109.9Z" fill="#E4897B"/>
<path d="M263.631 103.286C263.59 103.286 263.55 103.277 263.513 103.26C263.475 103.243 263.442 103.217 263.416 103.186C263.179 102.905 262.88 102.684 262.542 102.54C262.204 102.397 261.837 102.334 261.47 102.358C261.432 102.365 261.392 102.365 261.354 102.356C261.315 102.347 261.279 102.33 261.247 102.307C261.216 102.284 261.189 102.254 261.169 102.221C261.149 102.187 261.136 102.149 261.131 102.11C261.122 102.032 261.143 101.954 261.191 101.892C261.239 101.83 261.31 101.789 261.388 101.779C261.855 101.739 262.325 101.814 262.758 101.995C263.19 102.177 263.572 102.461 263.871 102.822C263.907 102.865 263.93 102.918 263.938 102.973C263.945 103.029 263.936 103.085 263.913 103.136C263.89 103.188 263.852 103.231 263.806 103.262C263.759 103.292 263.704 103.309 263.648 103.31L263.631 103.286Z" fill="#263238"/>
<path d="M262.342 106.953C262.048 108.141 261.594 109.282 260.992 110.347C261.269 110.496 261.574 110.582 261.888 110.599C262.201 110.617 262.514 110.564 262.805 110.447L262.342 106.953Z" fill="#DE5753"/>
<path d="M262.671 106.043C262.738 106.54 262.531 106.97 262.208 107.02C261.885 107.069 261.562 106.689 261.504 106.192C261.446 105.695 261.645 105.265 261.968 105.223C262.291 105.182 262.614 105.513 262.671 106.043Z" fill="#263238"/>
<path d="M262.116 105.231L260.883 105.041C260.883 105.041 261.611 105.894 262.116 105.231Z" fill="#263238"/>
<path d="M276.092 301.588H269.883L269.469 287.225H275.678L276.092 301.588Z" fill="#E4897B"/>
<path d="M304.282 301.588H298.073L296.078 287.225H302.287L304.282 301.588Z" fill="#E4897B"/>
<path d="M297.692 300.893H304.663C304.782 300.892 304.897 300.934 304.987 301.011C305.077 301.089 305.135 301.197 305.151 301.315L305.979 306.837C305.994 306.976 305.98 307.117 305.937 307.25C305.894 307.383 305.823 307.506 305.729 307.61C305.635 307.714 305.52 307.797 305.392 307.853C305.264 307.91 305.126 307.939 304.986 307.938C302.56 307.896 301.384 307.756 298.321 307.756C296.434 307.756 293.677 307.946 291.077 307.946C288.478 307.946 288.337 305.371 289.421 305.14C294.281 304.097 295.051 302.656 296.682 301.273C296.967 301.037 297.322 300.903 297.692 300.893Z" fill="#263238"/>
<path d="M269.677 300.893H276.639C276.759 300.891 276.875 300.933 276.966 301.011C277.058 301.088 277.118 301.196 277.136 301.315L277.964 306.837C277.979 306.976 277.965 307.117 277.921 307.25C277.878 307.383 277.808 307.506 277.714 307.61C277.62 307.714 277.505 307.797 277.377 307.853C277.249 307.91 277.11 307.939 276.97 307.938C274.545 307.897 273.369 307.756 270.306 307.756C268.418 307.756 264.511 307.946 261.911 307.946C259.312 307.946 259.171 305.371 260.255 305.14C265.115 304.097 267.027 302.656 268.667 301.273C268.951 301.037 269.307 300.903 269.677 300.893Z" fill="#263238"/>
<path d="M269.469 287.225L269.684 294.634H275.893L275.678 287.225H269.469Z" fill="#CE6F64"/>
<path d="M302.287 287.225H296.078L297.113 294.634H303.314L302.287 287.225Z" fill="#CE6F64"/>
<path d="M279.14 102.152C279.562 108.295 279.868 110.886 277.203 114.421C273.187 119.728 265.554 118.908 263.302 113.014C261.274 107.707 260.926 98.559 266.573 95.3468C267.815 94.635 269.218 94.2522 270.65 94.235C272.081 94.2177 273.493 94.5665 274.752 95.2482C276.011 95.9299 277.075 96.9219 277.843 98.1301C278.611 99.3384 279.057 100.723 279.14 102.152Z" fill="#E4897B"/>
<path d="M282.715 107.856C286.159 109.776 288.717 105.041 288.717 105.041C288.717 105.041 282.541 105.712 283.096 102.036C283.825 97.1595 280.331 91.2319 271.572 91.9936C271.083 92.0349 270.62 92.0929 270.164 92.1674C269.247 91.7328 268.211 91.6206 267.222 91.849C266.233 92.0774 265.35 92.633 264.717 93.4258C262.233 93.6328 258.88 96.5966 261.157 100.512C261.317 100.063 261.565 99.6488 261.886 99.2955C262.076 101.589 264.08 105.231 266.58 105.471C267.118 108.609 265.032 112.244 265.752 115.522C266.82 120.249 274.792 121.317 274.792 121.317C274.517 120.727 274.415 120.071 274.497 119.425C274.579 118.779 274.842 118.169 275.256 117.666C280.67 120.15 284.238 117.724 284.238 117.724C280.546 116.35 281.664 113.899 281.664 113.899C282.939 114.465 284.383 114.515 285.694 114.038C287.005 113.561 288.08 112.594 288.693 111.341C287.466 111.399 286.249 111.101 285.188 110.483C284.128 109.864 283.269 108.952 282.715 107.856Z" fill="#263238"/>
<path d="M268.741 106.415C268.756 107.005 268.653 107.591 268.44 108.141C268.227 108.691 267.907 109.193 267.499 109.619C266.406 110.753 265.065 109.958 264.701 108.51C264.378 107.201 264.56 105.041 265.984 104.445C266.298 104.321 266.637 104.279 266.971 104.32C267.305 104.361 267.624 104.485 267.898 104.681C268.172 104.877 268.392 105.138 268.54 105.441C268.687 105.744 268.756 106.079 268.741 106.415Z" fill="#E4897B"/>
<path d="M273.898 163.647C273.898 163.647 275.471 204.512 279.213 228.504C282.227 247.893 295.614 293.195 295.614 293.195H304.075C304.075 293.195 297.096 249.441 295.564 230.276C291.69 181.77 301.748 171.355 292.253 161.255L273.898 163.647Z" fill="#263238"/>
<path d="M280.968 176.57C280.968 176.57 277.143 175.908 274.908 183.193C275.736 196.994 277.152 215.307 279.213 228.503C279.669 231.442 280.364 234.986 281.217 238.869C279.602 215.555 280.968 176.57 280.968 176.57Z" fill="#161F33"/>
<path d="M267.301 164.508C267.301 164.508 260.33 209.719 260.736 228.636C261.158 248.314 268.369 293.211 268.369 293.211H276.755C276.755 293.211 275.431 249.482 276.168 230.159C276.995 209.089 285.597 162.132 285.597 162.132L267.301 164.508Z" fill="#263238"/>
<path d="M305.3 293.592H294.049L293.172 289.816L305.218 289.899L305.3 293.592Z" fill="#2F327D"/>
<path opacity="0.2" d="M305.3 293.592H294.049L293.172 289.816L305.218 289.899L305.3 293.592Z" fill="black"/>
<path d="M291.831 123.354C295.068 123.668 299.985 132.866 299.985 132.866L291.814 139.133C291.814 139.133 285.05 133.197 285.853 129.861C286.69 126.392 288.726 123.064 291.831 123.354Z" fill="#2F327D"/>
<path opacity="0.1" d="M291.831 123.354C295.068 123.668 299.985 132.866 299.985 132.866L291.814 139.133C291.814 139.133 285.05 133.197 285.853 129.861C286.69 126.392 288.726 123.064 291.831 123.354Z" fill="black"/>
<path d="M289.388 127.311C288.563 127.089 287.709 126.994 286.855 127.03C286.42 127.935 286.085 128.884 285.853 129.861C285.025 133.173 291.814 139.133 291.814 139.133L292.418 138.67L289.388 127.311Z" fill="#2F327D"/>
<path opacity="0.3" d="M289.388 127.311C288.563 127.089 287.709 126.994 286.855 127.03C286.42 127.935 286.085 128.884 285.853 129.861C285.025 133.173 291.814 139.133 291.814 139.133L292.418 138.67L289.388 127.311Z" fill="black"/>
<path d="M264.526 136.145C262.167 142.114 259.683 148.182 257.705 154.168C257.572 154.549 257.465 154.913 257.349 155.285L257.067 156.204C256.99 156.475 256.99 156.762 257.067 157.032C257.534 158.067 258.276 158.955 259.211 159.599C261.687 161.375 264.384 162.819 267.234 163.895L266.488 166.942C262.982 166.48 259.592 165.374 256.488 163.68C254.577 162.66 253.021 161.083 252.025 159.16C251.454 157.931 251.255 156.56 251.454 155.219C251.473 155.055 251.501 154.892 251.537 154.731L251.62 154.383L251.76 153.754C251.86 153.332 251.959 152.926 252.067 152.512C252.895 149.201 253.954 146.055 255.072 142.933C256.19 139.812 257.357 136.733 258.673 133.661L264.526 136.145Z" fill="#E4897B"/>
<path d="M259.502 127.766C259.502 127.766 256.704 129.182 267.301 164.508L292.286 161.246C290.531 151.129 289.703 144.862 291.831 123.354C288.248 123.097 284.651 123.097 281.069 123.354C277.254 123.575 273.461 124.073 269.718 124.844C264.925 125.912 259.502 127.766 259.502 127.766Z" fill="#2F327D"/>
<path opacity="0.1" d="M259.502 127.766C259.502 127.766 256.704 129.182 267.301 164.508L292.286 161.246C290.531 151.129 289.703 144.862 291.831 123.354C288.248 123.097 284.651 123.097 281.069 123.354C277.254 123.575 273.461 124.073 269.718 124.844C264.925 125.912 259.502 127.766 259.502 127.766Z" fill="black"/>
<path d="M292.468 159.731L293.901 161.809C294.008 161.974 293.826 162.173 293.545 162.215L267.342 165.642C267.119 165.642 266.912 165.584 266.879 165.443L266.365 163.233C266.324 163.084 266.506 162.927 266.754 162.893L292.054 159.582C292.13 159.57 292.208 159.577 292.281 159.603C292.353 159.629 292.418 159.673 292.468 159.731Z" fill="#2F327D"/>
<path opacity="0.2" d="M292.468 159.731L293.901 161.809C294.008 161.974 293.826 162.173 293.545 162.215L267.342 165.642C267.119 165.642 266.912 165.584 266.879 165.443L266.365 163.233C266.324 163.084 266.506 162.927 266.754 162.893L292.054 159.582C292.13 159.57 292.208 159.577 292.281 159.603C292.353 159.629 292.418 159.673 292.468 159.731Z" fill="black"/>
<path d="M289.438 163.001L290.117 162.91C290.249 162.91 290.34 162.811 290.324 162.728L289.628 159.864C289.602 159.815 289.56 159.777 289.508 159.755C289.457 159.734 289.4 159.732 289.347 159.748L288.668 159.831C288.527 159.831 288.436 159.93 288.461 160.021L289.157 162.877C289.173 162.968 289.306 163.018 289.438 163.001Z" fill="#263238"/>
<path d="M273.012 165.12L273.691 165.029C273.823 165.029 273.923 164.93 273.898 164.847L273.202 161.982C273.175 161.934 273.133 161.896 273.082 161.873C273.032 161.851 272.975 161.846 272.921 161.858L272.242 161.949C272.11 161.949 272.01 162.049 272.035 162.131L272.73 164.996C272.747 165.12 272.88 165.17 273.012 165.12Z" fill="#263238"/>
<path d="M260.668 139.754C261.355 142.949 262.324 146.998 263.739 152.122L264.046 139.133L260.668 139.754Z" fill="#2F327D"/>
<path opacity="0.3" d="M260.668 139.754C261.355 142.949 262.324 146.998 263.739 152.122L264.046 139.133L260.668 139.754Z" fill="black"/>
<path d="M259.5 127.767C256.396 129.017 253.705 139.638 253.705 139.638L264.385 144.837C264.385 144.837 269.542 131.848 267.233 129.315C264.923 126.781 263.077 126.334 259.5 127.767Z" fill="#2F327D"/>
<path opacity="0.1" d="M259.5 127.767C256.396 129.017 253.705 139.638 253.705 139.638L264.385 144.837C264.385 144.837 269.542 131.848 267.233 129.315C264.923 126.781 263.077 126.334 259.5 127.767Z" fill="black"/>
<path d="M278.185 293.592H266.934L266.057 289.816L278.583 289.899L278.185 293.592Z" fill="#2F327D"/>
<path opacity="0.2" d="M278.185 293.592H266.934L266.057 289.816L278.583 289.899L278.185 293.592Z" fill="black"/>
<path d="M267.408 162.868L266.506 162.496C266.284 162.405 266.042 162.375 265.805 162.409C265.568 162.442 265.344 162.538 265.156 162.686C264.967 162.834 264.821 163.029 264.733 163.251C264.644 163.474 264.616 163.716 264.651 163.953L265.305 168.266C265.337 168.482 265.416 168.688 265.537 168.87C265.657 169.051 265.817 169.204 266.004 169.316C266.191 169.429 266.4 169.498 266.618 169.52C266.835 169.542 267.054 169.515 267.259 169.441C267.588 169.322 267.895 169.152 268.17 168.936C268.469 168.688 268.706 168.373 268.862 168.016C269.017 167.66 269.086 167.272 269.064 166.883L268.973 165.095C268.957 164.612 268.801 164.144 268.523 163.748C268.245 163.353 267.858 163.047 267.408 162.868Z" fill="#E4897B"/>
</svg>
