<svg width="24" height="23" viewBox="0 0 24 23" fill="none" xmlns="http://www.w3.org/2000/svg">
<path d="M12.2579 18.5992L11.9996 18.443L11.7411 18.5987L6.20778 21.932L6.20689 21.9326C5.57393 22.3157 4.79917 21.7515 4.96612 21.0336L6.43274 14.7405L6.50121 14.4467L6.27321 14.2491L1.37988 10.0091L1.3797 10.009C0.819639 9.52414 1.12386 8.61003 1.8521 8.5521L1.8521 8.5521L1.85474 8.55188L8.29474 8.00521L8.5949 7.97973L8.71266 7.70247L11.2327 1.76913L11.2335 1.76719C11.5153 1.09583 12.483 1.09583 12.7648 1.76719L12.7654 1.76876L15.2854 7.71543L15.4031 7.99304L15.7035 8.01855L22.1435 8.56522L22.1461 8.56543C22.8744 8.62336 23.1786 9.53747 22.6185 10.0223L22.6184 10.0225L17.725 14.2625L17.497 14.46L17.5655 14.7538L19.0321 21.0469C19.0321 21.047 19.0322 21.0471 19.0322 21.0472C19.1989 21.765 18.4242 22.329 17.7914 21.9459L17.7912 21.9458L12.2579 18.5992Z" stroke="#AEAEAE"/>
</svg>
