<svg width="21" height="19" viewBox="0 0 21 19" fill="none" xmlns="http://www.w3.org/2000/svg">
<path fill-rule="evenodd" clip-rule="evenodd" d="M9.54829 0.696763C9.79043 0.503133 10.0874 0.390657 10.397 0.375289C10.7067 0.359921 11.0133 0.442441 11.2735 0.611143L11.3925 0.696763L15.6361 4.092C15.8431 4.25748 16.0146 4.46307 16.1403 4.69644C16.2659 4.92981 16.3431 5.18615 16.3673 5.45009L16.3752 5.62822V8.10822H18.3434C18.84 8.10806 19.3183 8.2956 19.6824 8.63325C20.0465 8.97089 20.2695 9.43368 20.3068 9.92885L20.3117 10.0765V17.8511C20.3118 18.1178 20.2135 18.3752 20.0355 18.5739C19.8575 18.7726 19.6124 18.8986 19.3472 18.9277L19.2291 18.9336H1.71169C1.44493 18.9337 1.18752 18.8354 0.988828 18.6574C0.790136 18.4794 0.664156 18.2343 0.635055 17.9692L0.62915 17.8511V10.0765C0.628993 9.5799 0.816534 9.10163 1.15418 8.73752C1.49182 8.37341 1.95462 8.15038 2.44978 8.11314L2.5974 8.10822H4.56566V5.62822C4.56564 5.36318 4.61915 5.10086 4.72298 4.85701C4.82682 4.61315 4.97883 4.39278 5.16991 4.20911L5.30473 4.09101L9.54829 0.695778V0.696763ZM10.4704 2.47902L6.53391 5.62822V16.9654H14.4069V5.62822L10.4704 2.47902ZM18.3434 10.0765H16.3752V16.9654H18.3434V10.0765ZM4.56566 10.0765H2.5974V16.9654H4.56566V10.0765ZM10.4704 6.13997C10.8581 6.13997 11.242 6.21633 11.6002 6.3647C11.9584 6.51307 12.2839 6.73054 12.5581 7.0047C12.8322 7.27885 13.0497 7.60432 13.1981 7.96252C13.3464 8.32072 13.4228 8.70463 13.4228 9.09234C13.4228 9.48006 13.3464 9.86397 13.1981 10.2222C13.0497 10.5804 12.8322 10.9058 12.5581 11.18C12.2839 11.4541 11.9584 11.6716 11.6002 11.82C11.242 11.9684 10.8581 12.0447 10.4704 12.0447C9.68739 12.0447 8.93644 11.7337 8.38277 11.18C7.82909 10.6263 7.51803 9.87536 7.51803 9.09234C7.51803 8.30932 7.82909 7.55837 8.38277 7.0047C8.93644 6.45102 9.68739 6.13997 10.4704 6.13997ZM10.4704 8.10822C10.2094 8.10822 9.95909 8.2119 9.77453 8.39646C9.58997 8.58102 9.48629 8.83134 9.48629 9.09234C9.48629 9.35335 9.58997 9.60367 9.77453 9.78823C9.95909 9.97279 10.2094 10.0765 10.4704 10.0765C10.7314 10.0765 10.9817 9.97279 11.1663 9.78823C11.3509 9.60367 11.4545 9.35335 11.4545 9.09234C11.4545 8.83134 11.3509 8.58102 11.1663 8.39646C10.9817 8.2119 10.7314 8.10822 10.4704 8.10822Z" fill="#3366FF"/>
</svg>
