<svg width="19" height="22" viewBox="0 0 19 22" fill="none" xmlns="http://www.w3.org/2000/svg">
<path d="M17.9235 20.7048C17.9235 16.8962 14.1346 13.8159 9.46988 13.8159C4.80512 13.8159 1.01624 16.8962 1.01624 20.7048M9.46988 10.8635C10.7749 10.8635 12.0265 10.3451 12.9493 9.42232C13.8721 8.49952 14.3905 7.24794 14.3905 5.94291C14.3905 4.63788 13.8721 3.38629 12.9493 2.4635C12.0265 1.5407 10.7749 1.02228 9.46988 1.02228C8.16485 1.02228 6.91327 1.5407 5.99047 2.4635C5.06767 3.38629 4.54925 4.63788 4.54925 5.94291C4.54925 7.24794 5.06767 8.49952 5.99047 9.42232C6.91327 10.3451 8.16485 10.8635 9.46988 10.8635Z" stroke="#3366FF" stroke-width="1.77143" stroke-linecap="round" stroke-linejoin="round"/>
</svg>
